{
  "asset": {
    "generator": "csf_tool",
    "version": "2.0"
  },
  "scene": 0,
  "scenes": [
    {
      "name": "BunnyScene",
      "nodes": [ 0 ]
    }
  ],
  "nodes": [
    {
      "name": "BunnyNode",
      "matrix": [ 1, 0, 0, 0, 0, 1, 0, 0, 0, 0, 1, 0, -0.336808, 1.203084, -0.030739, 1 ],
      "mesh": 0
    }
  ],
  "meshes": [
    {
      "name": "BunnyMesh",
      "primitives": [ { "attributes": { "POSITION": 0, "NORMAL": 1 }, "indices": 2, "mode": 4, "material": 0 } ]
    }
  ],
  "accessors": [
    {
      "bufferView": 1,
      "byteOffset": 0,
      "componentType": 5126,
      "count": 34817,
      "type": "VEC3",
      "min": [ -1.5569899082183838, -1.543336, -1.206733 ],
      "max": [ 1.5569899082183838, 1.5433359146118164, 1.206733 ]
    },
    {
      "bufferView": 1,
      "byteOffset": 417804,
      "componentType": 5126,
      "count": 34817,
      "type": "VEC3"
    },
    {
      "bufferView": 0,
      "byteOffset": 0,
      "componentType": 5125,
      "count": 208890,
      "type": "SCALAR"
    }
  ],
  "bufferViews": [
    {
      "buffer": 0,
      "byteOffset": 0,
      "byteLength": 835560,
      "target": 34963
    },
    {
      "buffer": 0,
      "byteOffset": 835560,
      "byteLength": 835608,
      "byteStride": 12,
      "target": 34962
    }
  ],
  "buffers": [
    {
      "byteLength": 1671168,
      "uri": "bunny.bin"
    }
  ],
  "materials": [
    {
      "name": "BunnyMaterial",
      "pbrMetallicRoughness": { "baseColorFactor": [ 1, 1, 1, 1 ] }
    }
  ]
}
